<svg width="17" height="20" viewBox="0 0 17 20" fill="none" xmlns="http://www.w3.org/2000/svg">
<path d="M15.3077 2.50002H11.8702V1.87501C11.8702 0.841139 11.0291 0 9.99518 0H7.49516C6.46129 0 5.62015 0.841139 5.62015 1.87501V2.50002H2.18263C1.32106 2.50002 0.620117 3.20096 0.620117 4.06253V6.25004C0.620117 6.5952 0.899963 6.87505 1.24512 6.87505H1.58669L2.12665 18.2143C2.17435 19.2157 2.99701 20.0001 3.99951 20.0001H13.4908C14.4934 20.0001 15.316 19.2157 15.3637 18.2143L15.9037 6.87505H16.2452C16.5904 6.87505 16.8702 6.5952 16.8702 6.25004V4.06253C16.8702 3.20096 16.1693 2.50002 15.3077 2.50002ZM6.87016 1.87501C6.87016 1.5304 7.15055 1.25001 7.49516 1.25001H9.99518C10.3398 1.25001 10.6202 1.5304 10.6202 1.87501V2.50002H6.87016V1.87501ZM1.87013 4.06253C1.87013 3.89022 2.01032 3.75003 2.18263 3.75003H15.3077C15.48 3.75003 15.6202 3.89022 15.6202 4.06253V5.62504C15.4276 5.62504 2.6683 5.62504 1.87013 5.62504V4.06253ZM14.1151 18.1549C14.0992 18.4886 13.825 18.7501 13.4908 18.7501H3.99951C3.66533 18.7501 3.39111 18.4886 3.37525 18.1549L2.8381 6.87505H14.6522L14.1151 18.1549Z" fill="#616161"/>
<path d="M8.74512 17.5002C9.09028 17.5002 9.37013 17.2203 9.37013 16.8752V8.75013C9.37013 8.40497 9.09028 8.12512 8.74512 8.12512C8.39996 8.12512 8.12012 8.40497 8.12012 8.75013V16.8752C8.12012 17.2203 8.39992 17.5002 8.74512 17.5002Z" fill="#616161"/>
<path d="M11.8701 17.5002C12.2153 17.5002 12.4951 17.2203 12.4951 16.8752V8.75013C12.4951 8.40497 12.2153 8.12512 11.8701 8.12512C11.525 8.12512 11.2451 8.40497 11.2451 8.75013V16.8752C11.2451 17.2203 11.5249 17.5002 11.8701 17.5002Z" fill="#616161"/>
<path d="M5.62012 17.5002C5.96528 17.5002 6.24513 17.2203 6.24513 16.8752V8.75013C6.24513 8.40497 5.96528 8.12512 5.62012 8.12512C5.27496 8.12512 4.99512 8.40497 4.99512 8.75013V16.8752C4.99512 17.2203 5.27492 17.5002 5.62012 17.5002Z" fill="#616161"/>
</svg>
