<svg width="18" height="18" viewBox="0 0 18 18" fill="none" xmlns="http://www.w3.org/2000/svg">
<path d="M17.0259 3.40754L14.3426 0.724208C13.7104 0.0919819 12.687 0.0918794 12.0548 0.724208C11.6047 1.17432 1.71057 11.0685 1.52187 11.2571C1.44729 11.3317 1.39455 11.4252 1.36942 11.5277L0.017163 17.0347C-0.0866073 17.4574 0.29696 17.8358 0.715493 17.733C1.00127 17.6629 5.96956 16.4428 6.22246 16.3807C6.32486 16.3556 6.41845 16.3029 6.493 16.2283C6.69179 16.0295 16.5309 6.19043 17.0259 5.69537C17.6581 5.06315 17.6583 4.03983 17.0259 3.40754ZM1.36573 16.3844L1.42083 16.1601L1.59006 16.3293L1.36573 16.3844ZM2.90099 16.0074L1.74274 14.8492L2.24641 12.7981L4.9521 15.5037L2.90099 16.0074ZM6.08478 15.0037L2.7465 11.6654L11.3668 3.04499L14.7051 6.38328L6.08478 15.0037ZM16.2095 4.87895L15.5427 5.5457L12.2045 2.20741L12.8712 1.54066C13.0522 1.35975 13.3452 1.35958 13.5262 1.54066L16.2095 4.22403C16.3905 4.40501 16.3905 4.6979 16.2095 4.87895Z" fill="#616161"/>
</svg>
